# xmcd CD database file
#
# Track frame offsets:
#	151
#	23450
#	44239
#	62740
#	82737
#	101232
#	119301
#	137976
#	161495
#	179522
#	200271
#	218086
#	234687
#	249990
#
# Disc length: 3614 seconds
#
# Revision: 1
# Processed by: cddbd v1.5.2PL0 Copyright (c) Steve Scherf et al.
# Submitted via: CDex 1.70beta2
#
DISCID=c10e1c0e
DTITLE=Rose Royce - Studio Cuts: Greatest Hits
DYEAR=2002
DGENRE=R&B
TTITLE0=Car Wash
TTITLE1=It Makes You Feel Like Dancin'
TTITLE2=Love Don't Live Here
TTITLE3=Oooh Boy
TTITLE4=Wishing On A Star (Remixed by Sen Dog of Cypress Hill)
TTITLE5=I Wanna Get Next To You
TTITLE6=Is It Love You're After
TTITLE7=Do Your Dance
TTITLE8=Car Wash II
TTITLE9=Wishing On A Star
TTITLE10=I'm In Love
TTITLE11=I'm Going Down
TTITLE12=People Make The World Go Round
TTITLE13=Car Wash (Remix)
EXTD=YEAR: 2002
EXTT0=
EXTT1=
EXTT2=
EXTT3=
EXTT4=
EXTT5=
EXTT6=
EXTT7=
EXTT8=
EXTT9=
EXTT10=
EXTT11=
EXTT12=
EXTT13=
PLAYORDER=
